{
	"asset":{
		"generator":"Khronos glTF Blender I/O v4.5.47",
		"version":"2.0"
	},
	"scene":0,
	"scenes":[
		{
			"name":"Scene",
			"nodes":[
				0
			]
		}
	],
	"nodes":[
		{
			"mesh":0,
			"name":"Cube"
		}
	],
	"materials":[
		{
			"doubleSided":true,
			"name":"\u30de\u30c6\u30ea\u30a2\u30eb",
			"pbrMetallicRoughness":{
				"baseColorTexture":{
					"index":0
				},
				"metallicFactor":0,
				"roughnessFactor":0.5
			}
		}
	],
	"meshes":[
		{
			"name":"Cube.001",
			"primitives":[
				{
					"attributes":{
						"POSITION":0,
						"NORMAL":1,
						"TEXCOORD_0":2
					},
					"indices":3,
					"material":0
				}
			]
		}
	],
	"textures":[
		{
			"sampler":0,
			"source":0
		}
	],
	"images":[
		{
			"mimeType":"image/png",
			"name":"Stone",
			"uri":"Stone.png"
		}
	],
	"accessors":[
		{
			"bufferView":0,
			"componentType":5126,
			"count":784,
			"max":[
				11.771696090698242,
				6.178330421447754,
				5.201935291290283
			],
			"min":[
				-9.839305877685547,
				-5.239565372467041,
				-4.164102554321289
			],
			"type":"VEC3"
		},
		{
			"bufferView":1,
			"componentType":5126,
			"count":784,
			"type":"VEC3"
		},
		{
			"bufferView":2,
			"componentType":5126,
			"count":784,
			"type":"VEC2"
		},
		{
			"bufferView":3,
			"componentType":5123,
			"count":1056,
			"type":"SCALAR"
		}
	],
	"bufferViews":[
		{
			"buffer":0,
			"byteLength":9408,
			"byteOffset":0,
			"target":34962
		},
		{
			"buffer":0,
			"byteLength":9408,
			"byteOffset":9408,
			"target":34962
		},
		{
			"buffer":0,
			"byteLength":6272,
			"byteOffset":18816,
			"target":34962
		},
		{
			"buffer":0,
			"byteLength":2112,
			"byteOffset":25088,
			"target":34963
		}
	],
	"samplers":[
		{
			"magFilter":9729,
			"minFilter":9987
		}
	],
	"buffers":[
		{
			"byteLength":27200,
			"uri":"Stone.bin"
		}
	]
}
