# Blender 4.5.1 LTS
# www.blender.org
mtllib PlayerWeapon.mtl
o 円柱
v 0.000000 0.100000 -3.070431
v 0.000000 0.100000 3.070431
v 0.086603 -0.050000 -3.070431
v 0.086603 -0.050000 3.070431
v -0.086603 -0.050000 -3.070431
v -0.086603 -0.050000 3.070431
vn 0.8660 0.5000 -0.0000
vn -0.0000 -1.0000 -0.0000
vn -0.0000 -0.0000 1.0000
vn -0.8660 0.5000 -0.0000
vn -0.0000 -0.0000 -1.0000
vt 1.000000 0.500000
vt 0.666667 1.000000
vt 0.666667 0.500000
vt 0.333333 0.500000
vt 0.457846 0.130000
vt 0.250000 0.490000
vt 0.042154 0.130000
vt -0.000000 1.000000
vt -0.000000 0.500000
vt 0.750000 0.490000
vt 0.957846 0.130000
vt 0.542154 0.130000
vt 1.000000 1.000000
vt 0.333333 1.000000
s 0
usemtl マテリアル.001
f 1/1/1 4/2/1 3/3/1
f 4/2/2 5/4/2 3/3/2
f 4/5/3 2/6/3 6/7/3
f 5/4/4 2/8/4 1/9/4
f 1/10/5 3/11/5 5/12/5
f 1/1/1 2/13/1 4/2/1
f 4/2/2 6/14/2 5/4/2
f 5/4/4 6/14/4 2/8/4
