{
	"asset":{
		"generator":"Khronos glTF Blender I/O v4.5.47",
		"version":"2.0"
	},
	"scene":0,
	"scenes":[
		{
			"name":"Scene",
			"nodes":[
				0
			]
		}
	],
	"nodes":[
		{
			"mesh":0,
			"name":"\u7acb\u65b9\u4f53.003",
			"rotation":[
				-0.08715574443340302,
				0,
				0,
				0.9961947202682495
			],
			"scale":[
				0.5,
				0.4999999701976776,
				50
			],
			"translation":[
				26,
				-13,
				-50
			]
		}
	],
	"materials":[
		{
			"doubleSided":true,
			"name":"\u30de\u30c6\u30ea\u30a2\u30eb.001",
			"pbrMetallicRoughness":{
				"baseColorTexture":{
					"index":0
				},
				"metallicFactor":0,
				"roughnessFactor":0.5
			}
		}
	],
	"meshes":[
		{
			"name":"\u7acb\u65b9\u4f53.004",
			"primitives":[
				{
					"attributes":{
						"POSITION":0,
						"NORMAL":1,
						"TEXCOORD_0":2
					},
					"indices":3,
					"material":0
				}
			]
		}
	],
	"textures":[
		{
			"sampler":0,
			"source":0
		}
	],
	"images":[
		{
			"mimeType":"image/png",
			"name":"Brige3",
			"uri":"Brige3.png"
		}
	],
	"accessors":[
		{
			"bufferView":0,
			"componentType":5126,
			"count":2654,
			"max":[
				7.999996185302734,
				52.817893981933594,
				3.016936779022217
			],
			"min":[
				-112,
				-78.30228424072266,
				-1.0310192108154297
			],
			"type":"VEC3"
		},
		{
			"bufferView":1,
			"componentType":5126,
			"count":2654,
			"type":"VEC3"
		},
		{
			"bufferView":2,
			"componentType":5126,
			"count":2654,
			"type":"VEC2"
		},
		{
			"bufferView":3,
			"componentType":5123,
			"count":5952,
			"type":"SCALAR"
		}
	],
	"bufferViews":[
		{
			"buffer":0,
			"byteLength":31848,
			"byteOffset":0,
			"target":34962
		},
		{
			"buffer":0,
			"byteLength":31848,
			"byteOffset":31848,
			"target":34962
		},
		{
			"buffer":0,
			"byteLength":21232,
			"byteOffset":63696,
			"target":34962
		},
		{
			"buffer":0,
			"byteLength":11904,
			"byteOffset":84928,
			"target":34963
		}
	],
	"samplers":[
		{
			"magFilter":9729,
			"minFilter":9987
		}
	],
	"buffers":[
		{
			"byteLength":96832,
			"uri":"Brige3.bin"
		}
	]
}
