{
	"asset":{
		"generator":"Khronos glTF Blender I/O v4.5.47",
		"version":"2.0"
	},
	"scene":0,
	"scenes":[
		{
			"name":"Scene",
			"nodes":[
				0
			]
		}
	],
	"nodes":[
		{
			"mesh":0,
			"name":"\u7acb\u65b9\u4f53"
		}
	],
	"materials":[
		{
			"doubleSided":true,
			"name":"\u30de\u30c6\u30ea\u30a2\u30eb.001",
			"pbrMetallicRoughness":{
				"baseColorTexture":{
					"index":0
				},
				"metallicFactor":0,
				"roughnessFactor":0.5
			}
		}
	],
	"meshes":[
		{
			"name":"\u7acb\u65b9\u4f53.001",
			"primitives":[
				{
					"attributes":{
						"POSITION":0,
						"NORMAL":1,
						"TEXCOORD_0":2,
						"TEXCOORD_1":3
					},
					"indices":4,
					"material":0
				}
			]
		}
	],
	"textures":[
		{
			"sampler":0,
			"source":0
		}
	],
	"images":[
		{
			"mimeType":"image/png",
			"name":"Player",
			"uri":"Player.png"
		}
	],
	"accessors":[
		{
			"bufferView":0,
			"componentType":5126,
			"count":1225,
			"max":[
				1.6507625579833984,
				3.622042417526245,
				1.6507624387741089
			],
			"min":[
				-1.6507625579833984,
				-2.968168020248413,
				-1.6507625579833984
			],
			"type":"VEC3"
		},
		{
			"bufferView":1,
			"componentType":5126,
			"count":1225,
			"type":"VEC3"
		},
		{
			"bufferView":2,
			"componentType":5126,
			"count":1225,
			"type":"VEC2"
		},
		{
			"bufferView":3,
			"componentType":5126,
			"count":1225,
			"type":"VEC2"
		},
		{
			"bufferView":4,
			"componentType":5123,
			"count":6384,
			"type":"SCALAR"
		}
	],
	"bufferViews":[
		{
			"buffer":0,
			"byteLength":14700,
			"byteOffset":0,
			"target":34962
		},
		{
			"buffer":0,
			"byteLength":14700,
			"byteOffset":14700,
			"target":34962
		},
		{
			"buffer":0,
			"byteLength":9800,
			"byteOffset":29400,
			"target":34962
		},
		{
			"buffer":0,
			"byteLength":9800,
			"byteOffset":39200,
			"target":34962
		},
		{
			"buffer":0,
			"byteLength":12768,
			"byteOffset":49000,
			"target":34963
		}
	],
	"samplers":[
		{
			"magFilter":9729,
			"minFilter":9987
		}
	],
	"buffers":[
		{
			"byteLength":61768,
			"uri":"Player.bin"
		}
	]
}
