{
	"asset":{
		"generator":"Khronos glTF Blender I/O v4.5.47",
		"version":"2.0"
	},
	"scene":0,
	"scenes":[
		{
			"name":"Scene",
			"nodes":[
				0
			]
		}
	],
	"nodes":[
		{
			"mesh":0,
			"name":"BossStageWall1"
		}
	],
	"materials":[
		{
			"doubleSided":true,
			"name":"\u30de\u30c6\u30ea\u30a2\u30eb",
			"pbrMetallicRoughness":{
				"baseColorTexture":{
					"index":0
				},
				"metallicFactor":0,
				"roughnessFactor":0.5
			}
		}
	],
	"meshes":[
		{
			"name":"\u7acb\u65b9\u4f53.007",
			"primitives":[
				{
					"attributes":{
						"POSITION":0,
						"NORMAL":1,
						"TEXCOORD_0":2,
						"COLOR_0":3,
						"COLOR_1":4
					},
					"indices":5,
					"material":0
				}
			]
		}
	],
	"textures":[
		{
			"sampler":0,
			"source":0
		}
	],
	"images":[
		{
			"mimeType":"image/png",
			"name":"BossStageWall",
			"uri":"BossStageWall.png"
		}
	],
	"accessors":[
		{
			"bufferView":0,
			"componentType":5126,
			"count":1589,
			"max":[
				120.00000762939453,
				99.97284698486328,
				24
			],
			"min":[
				-120.00000762939453,
				-0.47999998927116394,
				-24
			],
			"type":"VEC3"
		},
		{
			"bufferView":1,
			"componentType":5126,
			"count":1589,
			"type":"VEC3"
		},
		{
			"bufferView":2,
			"componentType":5126,
			"count":1589,
			"type":"VEC2"
		},
		{
			"bufferView":3,
			"componentType":5121,
			"count":1589,
			"normalized":true,
			"type":"VEC4"
		},
		{
			"bufferView":4,
			"componentType":5123,
			"count":1589,
			"normalized":true,
			"type":"VEC4"
		},
		{
			"bufferView":5,
			"componentType":5123,
			"count":3552,
			"type":"SCALAR"
		}
	],
	"bufferViews":[
		{
			"buffer":0,
			"byteLength":19068,
			"byteOffset":0,
			"target":34962
		},
		{
			"buffer":0,
			"byteLength":19068,
			"byteOffset":19068,
			"target":34962
		},
		{
			"buffer":0,
			"byteLength":12712,
			"byteOffset":38136,
			"target":34962
		},
		{
			"buffer":0,
			"byteLength":6356,
			"byteOffset":50848,
			"target":34962
		},
		{
			"buffer":0,
			"byteLength":12712,
			"byteOffset":57204,
			"target":34962
		},
		{
			"buffer":0,
			"byteLength":7104,
			"byteOffset":69916,
			"target":34963
		}
	],
	"samplers":[
		{
			"magFilter":9729,
			"minFilter":9987
		}
	],
	"buffers":[
		{
			"byteLength":77020,
			"uri":"BossStageWall.bin"
		}
	]
}
