{
	"asset":{
		"generator":"Khronos glTF Blender I/O v4.5.47",
		"version":"2.0"
	},
	"scene":0,
	"scenes":[
		{
			"name":"Scene",
			"nodes":[
				0
			]
		}
	],
	"nodes":[
		{
			"mesh":0,
			"name":"\u30c8\u30fc\u30e9\u30b9.005"
		}
	],
	"materials":[
		{
			"doubleSided":true,
			"name":"\u30de\u30c6\u30ea\u30a2\u30eb",
			"pbrMetallicRoughness":{
				"baseColorTexture":{
					"index":0
				},
				"metallicFactor":0,
				"roughnessFactor":0.5
			}
		}
	],
	"meshes":[
		{
			"name":"\u30c8\u30fc\u30e9\u30b9.005",
			"primitives":[
				{
					"attributes":{
						"POSITION":0,
						"NORMAL":1,
						"TEXCOORD_0":2,
						"TEXCOORD_1":3
					},
					"indices":4,
					"material":0
				}
			]
		}
	],
	"textures":[
		{
			"sampler":0,
			"source":0
		}
	],
	"images":[
		{
			"mimeType":"image/png",
			"name":"BossEnemy",
			"uri":"BossEnemy.png"
		}
	],
	"accessors":[
		{
			"bufferView":0,
			"componentType":5126,
			"count":14520,
			"max":[
				16.65654182434082,
				18.837352752685547,
				16.11670684814453
			],
			"min":[
				-16.48346710205078,
				-9.627906799316406,
				-16.38483428955078
			],
			"type":"VEC3"
		},
		{
			"bufferView":1,
			"componentType":5126,
			"count":14520,
			"type":"VEC3"
		},
		{
			"bufferView":2,
			"componentType":5126,
			"count":14520,
			"type":"VEC2"
		},
		{
			"bufferView":3,
			"componentType":5126,
			"count":14520,
			"type":"VEC2"
		},
		{
			"bufferView":4,
			"componentType":5123,
			"count":20772,
			"type":"SCALAR"
		}
	],
	"bufferViews":[
		{
			"buffer":0,
			"byteLength":174240,
			"byteOffset":0,
			"target":34962
		},
		{
			"buffer":0,
			"byteLength":174240,
			"byteOffset":174240,
			"target":34962
		},
		{
			"buffer":0,
			"byteLength":116160,
			"byteOffset":348480,
			"target":34962
		},
		{
			"buffer":0,
			"byteLength":116160,
			"byteOffset":464640,
			"target":34962
		},
		{
			"buffer":0,
			"byteLength":41544,
			"byteOffset":580800,
			"target":34963
		}
	],
	"samplers":[
		{
			"magFilter":9729,
			"minFilter":9987
		}
	],
	"buffers":[
		{
			"byteLength":622344,
			"uri":"BossEnemy.bin"
		}
	]
}
