{
	"asset":{
		"generator":"Khronos glTF Blender I/O v4.5.47",
		"version":"2.0"
	},
	"scene":0,
	"scenes":[
		{
			"name":"Scene",
			"nodes":[
				0
			]
		}
	],
	"nodes":[
		{
			"mesh":0,
			"name":"\u8db3"
		}
	],
	"materials":[
		{
			"doubleSided":true,
			"name":"\u30de\u30c6\u30ea\u30a2\u30eb.001",
			"pbrMetallicRoughness":{
				"baseColorTexture":{
					"index":0
				},
				"metallicFactor":0,
				"roughnessFactor":0.5
			}
		}
	],
	"meshes":[
		{
			"name":"\u30c8\u30fc\u30e9\u30b9.002",
			"primitives":[
				{
					"attributes":{
						"POSITION":0,
						"NORMAL":1,
						"TEXCOORD_0":2
					},
					"indices":3,
					"material":0
				}
			]
		}
	],
	"textures":[
		{
			"sampler":0,
			"source":0
		}
	],
	"images":[
		{
			"mimeType":"image/png",
			"name":"BossEnemyFoot",
			"uri":"BossEnemyFoot.png"
		}
	],
	"accessors":[
		{
			"bufferView":0,
			"componentType":5126,
			"count":9216,
			"max":[
				1.625,
				0.25,
				1.625
			],
			"min":[
				-1.625,
				-0.25,
				-1.625
			],
			"type":"VEC3"
		},
		{
			"bufferView":1,
			"componentType":5126,
			"count":9216,
			"type":"VEC3"
		},
		{
			"bufferView":2,
			"componentType":5126,
			"count":9216,
			"type":"VEC2"
		},
		{
			"bufferView":3,
			"componentType":5123,
			"count":13824,
			"type":"SCALAR"
		}
	],
	"bufferViews":[
		{
			"buffer":0,
			"byteLength":110592,
			"byteOffset":0,
			"target":34962
		},
		{
			"buffer":0,
			"byteLength":110592,
			"byteOffset":110592,
			"target":34962
		},
		{
			"buffer":0,
			"byteLength":73728,
			"byteOffset":221184,
			"target":34962
		},
		{
			"buffer":0,
			"byteLength":27648,
			"byteOffset":294912,
			"target":34963
		}
	],
	"samplers":[
		{
			"magFilter":9729,
			"minFilter":9987
		}
	],
	"buffers":[
		{
			"byteLength":322560,
			"uri":"BossEnemyFoot.bin"
		}
	]
}
